<?xml version="1.0" encoding="utf-8"?>
<!-- Generator: Adobe Illustrator 17.1.0, SVG Export Plug-In . SVG Version: 6.00 Build 0)  -->
<!DOCTYPE svg PUBLIC "-//W3C//DTD SVG 1.1//EN" "http://www.w3.org/Graphics/SVG/1.1/DTD/svg11.dtd">
<svg version="1.1" id="Capa_1" xmlns="http://www.w3.org/2000/svg" xmlns:xlink="http://www.w3.org/1999/xlink" x="0px" y="0px"
	 viewBox="0 0 595.3 841.9" enable-background="new 0 0 595.3 841.9" xml:space="preserve">
<path d="M37.2,439.5c0,152.5,126.5,279,279,279s279-126.5,279-279s-126.5-279-279-279S37.2,287,37.2,439.5z M223.2,439.5
	c0-3.7,3.7-11.2,7.4-14.9l119.1-119.1c7.4-7.4,18.6-7.4,26,0c7.4,7.4,7.4,18.6,0,26L264.2,439.5l107.9,107.9c7.4,7.4,7.4,18.6,0,26
	c-7.4,7.4-18.6,7.4-26,0L227,454.4C227,450.7,223.2,443.3,223.2,439.5z"/>
</svg>
